Patient4_TMGait_0pt5_02_left_42_GRF.mot
version=1
nRows=33
nColumns=19
inDegrees=no
endheader
time	F1x	F1y	F1z	M1x	M1y	M1z	F2x	F2y	F2z	M2x	M2y	M2z	EC1x	EC1y	EC1z	EC2x	EC2y	EC2z
54.19	15.697	3.018	-0.11491	-1.3864	4.7162	0.75922	-46.99	768.9093	-56.8943	300.7437	73.0526	753.9602	-0.0592	0.0182	-0.0073	-0.0462	0.0165	0.9585
54.203	10.2982	2.7678	0.041009	-1.2119	3.001	1.3576	-43.3305	756.4359	-55.1793	296.2965	69.7201	738.0416	-0.0592	0.0182	-0.0073	-0.0462	0.0165	0.9585
54.216	5.8151	2.5403	0.15476	-1.0574	1.5745	1.8158	-38.9943	743.263	-53.1249	291.6336	65.7286	720.6261	-0.0592	0.0182	-0.0073	-0.0462	0.0165	0.9585
54.229	2.4702	2.3623	0.23758	-0.93852	0.49935	2.1354	-34.0897	730.8743	-50.8977	287.3376	61.2956	703.2065	-0.0592	0.0182	-0.0073	-0.0462	0.0165	0.9585
54.242	0.19296	2.2483	0.29283	-0.85858	-0.24102	2.3554	-28.698	720.8315	-48.6656	284.029	56.6305	687.3299	-0.0592	0.0182	-0.0073	-0.0462	0.0165	0.9585
54.255	-1.1824	2.1823	0.32868	-0.80908	-0.70025	2.473	-22.8812	714.4547	-46.5626	282.2366	51.9001	674.2868	-0.0592	0.0182	-0.0073	-0.0462	0.0165	0.9585
54.268	-1.9085	2.1496	0.35055	-0.78034	-0.95531	2.5247	-16.7309	712.5656	-44.7065	282.2899	47.2599	664.9005	-0.0592	0.0182	-0.0073	-0.0462	0.0165	0.9585
54.281	-2.1871	2.1038	0.36358	-0.75401	-1.0726	2.4918	-10.4043	715.3765	-43.1874	284.2694	42.8609	659.4481	-0.0592	0.0182	-0.0073	-0.0462	0.0165	0.9585
54.294	-2.222	1.9967	0.37341	-0.70902	-1.1142	2.3676	-4.1274	722.4923	-42.062	288.0053	38.8428	657.6737	-0.0592	0.0182	-0.0073	-0.0462	0.0165	0.9585
54.307	-2.1362	1.763	0.38219	-0.6192	-1.1168	2.1038	1.8277	732.98	-41.3527	293.1066	35.3265	658.8699	-0.0592	0.0182	-0.0073	-0.0462	0.0165	0.9585
54.32	-2.0139	1.324	0.39808	-0.45314	-1.1091	1.6322	7.179	745.5204	-41.0278	299.0193	32.387	662.0201	-0.0592	0.0182	-0.0073	-0.0462	0.0165	0.9585
54.333	-1.9015	0.60818	0.41725	-0.17972	-1.1025	0.88141	11.6741	758.5578	-41.0376	305.0889	30.0735	665.9154	-0.0592	0.0182	-0.0073	-0.0462	0.0165	0.9585
54.346	-1.7932	-0.4618	0.44213	0.22827	-1.0964	-0.23821	15.1259	770.4978	-41.3015	310.6445	28.383	669.3284	-0.0592	0.0182	-0.0073	-0.0462	0.0165	0.9585
54.359	-1.6647	-1.913	0.46188	0.77769	-1.0666	-1.7306	17.462	779.9075	-41.7387	315.0833	27.2692	671.1616	-0.0592	0.0182	-0.0073	-0.0462	0.0165	0.9585
54.372	-1.4268	-3.6765	0.4645	1.4395	-0.96842	-3.5413	18.7502	785.7186	-42.2307	317.9537	26.6061	670.589	-0.0592	0.0182	-0.0073	-0.0462	0.0165	0.9585
54.385	-0.98476	-5.5158	0.42625	2.1247	-0.74552	-5.4346	19.1721	787.3909	-42.6563	319.0189	26.2255	667.1945	-0.0592	0.0182	-0.0073	-0.0462	0.0165	0.9585
54.398	-0.20035	-7.0038	0.31358	2.6688	-0.3194	-7.0016	19.0068	784.9407	-42.9113	318.2728	25.9371	660.9747	-0.0592	0.0182	-0.0073	-0.0462	0.0165	0.9585
54.411	1.063	-7.4244	0.091899	2.8027	0.39064	-7.5365	18.5712	778.9054	-42.9674	315.9205	25.6008	652.3369	-0.0592	0.0182	-0.0073	-0.0462	0.0165	0.9585
54.424	2.9172	-5.7416	-0.28477	2.1385	1.4705	-6.0081	18.196	770.1408	-42.8659	312.2997	25.1306	641.9185	-0.0592	0.0182	-0.0073	-0.0462	0.0165	0.9585
54.437	5.4031	-0.59856	-0.84328	0.1654	2.9634	-1.0559	18.1616	759.6148	-42.7191	307.7984	24.5164	630.4437	-0.0592	0.0182	-0.0073	-0.0462	0.0165	0.9585
54.45	8.4074	9.63	-1.5995	-3.7304	4.8448	8.9815	18.6853	748.1872	-42.6425	302.7693	23.7729	618.546	-0.0592	0.0182	-0.0073	-0.0462	0.0165	0.9585
54.463	11.6009	26.6158	-2.5144	-10.1789	6.9485	25.8218	19.8528	736.4026	-42.7225	297.4482	22.9437	606.6143	-0.0592	0.0182	-0.0073	-0.0462	0.0165	0.9585
54.476	14.2947	51.7543	-3.5003	-19.6974	8.9254	50.9419	21.6128	724.3412	-42.9637	291.8926	22.0595	594.6769	-0.0592	0.0182	-0.0073	-0.0462	0.0165	0.9585
54.489	15.4387	85.5876	-4.4334	-32.4771	10.2534	84.9816	23.7955	711.5831	-43.2822	285.9658	21.1272	582.3764	-0.0592	0.0182	-0.0073	-0.0462	0.0165	0.9585
54.502	13.7983	127.1158	-5.1367	-48.1243	10.284	127.075	26.1309	697.3077	-43.525	279.3751	20.1292	569.0591	-0.0592	0.0182	-0.0073	-0.0462	0.0165	0.9585
54.515	8.7002	173.3066	-5.3165	-65.4653	8.4666	174.3085	28.3325	680.5159	-43.5232	271.7603	19.0399	553.9097	-0.0592	0.0182	-0.0073	-0.0462	0.0165	0.9585
54.528	0.89987	218.9163	-4.4736	-82.479	4.59	221.4528	30.1149	660.3607	-43.1441	262.8216	17.8603	536.2321	-0.0592	0.0182	-0.0073	-0.0462	0.0165	0.9585
54.541	-7.9658	258.2777	-2.2372	-97.0039	-1.0573	262.6971	31.2792	636.4269	-42.353	252.4322	16.6396	515.6439	-0.0592	0.0182	-0.0073	-0.0462	0.0165	0.9585
54.554	-16.6645	288.8817	0.84565	-108.1106	-7.4448	295.3306	31.7095	608.9701	-41.1987	240.7151	15.461	492.3153	-0.0592	0.0182	-0.0073	-0.0462	0.0165	0.9585
54.567	-24.3822	311.8067	4.2196	-116.2364	-13.7138	320.3022	31.4313	578.6807	-39.7842	227.9553	14.3954	466.7674	-0.0592	0.0182	-0.0073	-0.0462	0.0165	0.9585
54.58	-30.6791	329.4758	7.2335	-122.3503	-19.0657	339.9262	30.6048	546.327	-38.1344	214.4692	13.4016	439.5987	-0.0592	0.0182	-0.0073	-0.0462	0.0165	0.9585
54.593	-35.445	344.185	9.6246	-127.3561	-23.2046	356.4126	29.4718	512.5682	-36.1664	200.532	12.3291	411.3435	-0.0592	0.0182	-0.0073	-0.0462	0.0165	0.9585
54.606	-38.6343	357.7515	11.2258	-131.9607	-25.9639	371.4175	28.2823	477.9143	-33.7756	186.3566	11.0064	382.4265	-0.0592	0.0182	-0.0073	-0.0462	0.0165	0.9585
